<svg xmlns="http://www.w3.org/2000/svg" xmlns:xlink="http://www.w3.org/1999/xlink" height="800px" width="800px" version="1.1" id="Layer_1" viewBox="0 0 303.188 303.188" xml:space="preserve">
<g>
	<polygon style="fill:#E4E4E4;" points="219.821,0 32.842,0 32.842,303.188 270.346,303.188 270.346,50.525  "/>
	<polygon style="fill:#5E158F;" points="227.64,25.263 32.842,25.263 32.842,0 219.821,0  "/>
	
	<g xmlns="http://www.w3.org/2000/svg" transform="matrix(0.01 0 0 0.01 120 115)">
<path style="stroke: rgb(0,0,0); stroke-width: 0; stroke-dasharray: none; stroke-linecap: butt; stroke-dashoffset: 0; stroke-linejoin: miter; stroke-miterlimit: 4; fill: rgb(94,21,143); fill-rule: nonzero; opacity: 1;" vector-effect="non-scaling-stroke" transform=" translate(-4438.99, -6399.19)" d="M 6360 12769 C 5942 12660 4857 12300 3680 11880 C 3523 11824 3283 11739 3145 11690 C 953 10914 497 10730 425 10591 C 370 10483 287 9290 170 6900 C 146 6413 98 5262 75 4625 C 62 4246 48 3865 45 3780 C 23 3194 8 2453 4 1705 L -1 835 L 228 590 C 454 349 547 262 685 163 C 837 55 907 27 1079 10 C 1450 -27 1885 46 2110 184 C 2218 250 2505 381 2965 575 C 3311 720 3687 877 3865 950 C 3970 993 4206 1090 4390 1165 C 4766 1319 6244 1911 6475 2000 C 6558 2032 6742 2104 6885 2160 C 7028 2216 7330 2331 7555 2417 C 7781 2502 8001 2590 8045 2612 C 8206 2693 8333 2798 8393 2901 C 8485 3058 8551 3767 8630 5463 C 8635 5582 8645 5777 8650 5895 C 8656 6013 8665 6208 8670 6328 C 8683 6604 8698 6917 8710 7188 C 8716 7304 8725 7497 8730 7615 C 8736 7733 8745 7927 8750 8045 C 8756 8163 8765 8357 8770 8475 C 8776 8593 8784 8786 8790 8903 C 8879 10802 8892 11233 8869 11535 C 8852 11770 8819 11882 8749 11945 C 8696 11992 8633 12007 8450 12015 C 8263 12022 8124 12041 7970 12080 C 7615 12169 7324 12309 7063 12517 C 6895 12651 6762 12729 6626 12775 C 6532 12807 6501 12806 6360 12769 z M 6774 12500 C 6839 12476 6788 12428 6595 12335 C 6399 12240 6176 12152 5468 11891 C 5392 11863 5269 11818 5195 11790 C 5121 11763 5000 11718 4928 11691 C 4855 11664 4734 11619 4660 11592 C 4586 11564 4444 11512 4345 11475 C 4156 11405 3274 11078 3010 10980 C 2849 10920 2735 10878 2095 10640 C 943 10212 966 10219 889 10240 C 816 10260 742 10352 726 10441 C 715 10505 731 10527 822 10570 C 1071 10685 2352 11128 3630 11540 C 3820 11602 4056 11678 4155 11710 C 4254 11742 4436 11801 4560 11840 C 4684 11879 4895 11947 5030 11990 C 5165 12033 5489 12136 5750 12218 C 6011 12301 6293 12389 6375 12415 C 6678 12511 6721 12520 6774 12500 z M 7132 12233 C 7142 12224 7150 12203 7150 12184 C 7150 12156 7143 12145 7108 12120 C 6949 12004 6139 11657 5020 11223 C 4885 11171 4708 11102 4625 11070 C 3367 10581 2154 10146 1765 10044 C 1611 10004 1498 9994 1493 10020 C 1486 10054 1548 10095 1716 10167 C 2181 10365 3753 10985 5285 11575 C 5461 11643 5805 11776 6050 11870 C 6406 12008 6937 12212 7020 12243 C 7052 12255 7114 12250 7132 12233 z M 7921 11811 C 7931 11798 7940 11784 7940 11778 C 7940 11726 6272 11138 4370 10522 C 3657 10290 3013 10107 2844 10087 C 2792 10081 2771 10092 2790 10115 C 2831 10165 3008 10238 3880 10567 C 5957 11350 7039 11717 7580 11821 C 7644 11833 7712 11838 7788 11837 C 7894 11835 7903 11833 7921 11811 z M 8527 11101 C 8520 10747 8511 10497 8485 9890 C 8469 9524 8463 9415 8400 8155 C 8378 7715 8351 7175 8340 6955 C 8221 4580 8118 3122 8062 3033 C 8045 3006 7588 2812 6756 2479 C 6148 2235 5270 1891 4420 1565 C 3729 1300 2986 1023 2798 961 C 2744 943 2692 931 2682 934 C 2630 951 2621 1052 2649 1320 C 2702 1837 2732 2334 2865 4860 C 3024 7870 3078 8782 3130 9325 C 3175 9784 3183 9855 3189 9861 C 3192 9865 3492 9959 3855 10070 C 4218 10181 4835 10370 5225 10490 C 5616 10610 6025 10735 6135 10769 C 6245 10802 6448 10863 6585 10905 C 7547 11198 8500 11467 8524 11453 C 8530 11449 8531 11313 8527 11101 z M 804 9969 C 854 9952 987 9897 1100 9847 C 1456 9691 1569 9663 1819 9673 C 2026 9681 2424 9737 2582 9781 C 2622 9792 2671 9803 2692 9807 C 2725 9812 2730 9810 2745 9779 C 2787 9698 2785 9390 2735 8440 C 2709 7951 2666 7451 2640 7337 C 2635 7315 2623 7292 2613 7286 C 2555 7252 2342 7176 2190 7136 C 1828 7041 1382 7023 1105 7091 C 1000 7117 837 7197 774 7254 C 603 7407 570 7693 600 8780 C 615 9345 640 9874 656 9968 C 663 10010 683 10010 804 9969 z M 953 6809 C 1064 6760 1167 6726 1295 6698 C 1383 6678 1424 6676 1645 6676 C 1917 6675 1947 6678 2389 6751 C 2523 6772 2635 6788 2638 6785 C 2648 6775 2522 4463 2485 3995 C 2435 3351 2393 3161 2284 3098 C 2171 3032 1611 3012 1138 3055 C 926 3075 785 3102 711 3138 C 639 3173 531 3279 495 3350 C 470 3400 467 3418 457 3595 C 439 3909 464 4952 530 6655 C 535 6798 540 6936 540 6963 L 540 7010 L 702 6929 C 792 6884 904 6830 953 6809 z M 677 2776 C 736 2758 844 2722 915 2697 C 1119 2625 1209 2610 1465 2603 C 1666 2598 2079 2618 2343 2646 L 2400 2652 L 2398 1659 L 2395 666 L 2245 623 C 1668 457 1387 402 1170 413 C 888 427 587 577 450 772 C 364 895 365 885 365 1440 C 366 1911 375 2146 406 2490 C 422 2671 437 2775 452 2804 C 461 2820 470 2822 516 2816 C 545 2813 618 2795 677 2776 z" stroke-linecap="round"/>
</g>

<g xmlns="http://www.w3.org/2000/svg" transform="matrix(1.5 0 0 2 190 105)">
<path style="stroke: rgb(0,0,0); stroke-width: 0; stroke-dasharray: none; stroke-linecap: butt; stroke-dashoffset: 0; stroke-linejoin: miter; stroke-miterlimit: 4; fill: rgb(197,6,6); fill-rule: nonzero; opacity: 1;" vector-effect="non-scaling-stroke" transform=" translate(-48.78, -49.51)" d="M 52.122 73.982 L 11.063 50.273 L 44.59 16.744 L 44.59 32.771 C 81.936 31.042 89.263 52.512 85.701 82.27600000000001 C 79.695 61.46600000000001 68.148 50.22300000000001 48.55899999999999 52.97000000000001 L 52.122 73.982 z" stroke-linecap="round"/>
</g>
    
    <g xmlns="http://www.w3.org/2000/svg" transform="matrix(0.74 0 0 0.74 240 235)" style="" id="b6781d1d-9807-4560-afc4-de51308a9a56">
		<text xmlns="http://www.w3.org/2000/svg" xml:space="preserve" font-family="Raleway" font-size="50" font-style="normal" font-weight="900" style="stroke: none; stroke-width: 1; stroke-dasharray: none; stroke-linecap: butt; stroke-dashoffset: 0; stroke-linejoin: miter; stroke-miterlimit: 4; fill: rgb(164,169,173); fill-rule: nonzero; opacity: 1; white-space: pre;"><tspan x="-256.17" y="47.44">DEVOLVER</tspan></text>
</g>
	<polygon style="fill:#D1D3D3;" points="219.821,50.525 270.346,50.525 219.821,0  "/>
</g>
</svg>